<svg id="export-svg" width="100%" xmlns="http://www.w3.org/2000/svg" style="max-width: 1590px;" viewBox="0 -56 1590 755.5999755859375" role="graphics-document document" aria-roledescription="timeline"><style xmlns="http://www.w3.org/1999/xhtml">@import url("https://cdnjs.cloudflare.com/ajax/libs/font-awesome/6.2.0/css/all.min.css"); p {margin: 0;}</style><style>#export-svg{font-family:arial,sans-serif;font-size:14px;fill:#333;}@keyframes edge-animation-frame{from{stroke-dashoffset:0;}}@keyframes dash{to{stroke-dashoffset:0;}}#export-svg .edge-animation-slow{stroke-dasharray:9,5!important;stroke-dashoffset:900;animation:dash 50s linear infinite;stroke-linecap:round;}#export-svg .edge-animation-fast{stroke-dasharray:9,5!important;stroke-dashoffset:900;animation:dash 20s linear infinite;stroke-linecap:round;}#export-svg .error-icon{fill:#552222;}#export-svg .error-text{fill:#552222;stroke:#552222;}#export-svg .edge-thickness-normal{stroke-width:1px;}#export-svg .edge-thickness-thick{stroke-width:3.5px;}#export-svg .edge-pattern-solid{stroke-dasharray:0;}#export-svg .edge-thickness-invisible{stroke-width:0;fill:none;}#export-svg .edge-pattern-dashed{stroke-dasharray:3;}#export-svg .edge-pattern-dotted{stroke-dasharray:2;}#export-svg .marker{fill:#333333;stroke:#333333;}#export-svg .marker.cross{stroke:#333333;}#export-svg svg{font-family:arial,sans-serif;font-size:14px;}#export-svg p{margin:0;}#export-svg .edge{stroke-width:3;}#export-svg .section--1 rect,#export-svg .section--1 path,#export-svg .section--1 circle,#export-svg .section--1 path{fill:hsl(240, 100%, 76.2745098039%);}#export-svg .section--1 text{fill:#ffffff;}#export-svg .node-icon--1{font-size:40px;color:#ffffff;}#export-svg .section-edge--1{stroke:hsl(240, 100%, 76.2745098039%);}#export-svg .edge-depth--1{stroke-width:17;}#export-svg .section--1 line{stroke:hsl(60, 100%, 86.2745098039%);stroke-width:3;}#export-svg .lineWrapper line{stroke:#ffffff;}#export-svg .disabled,#export-svg .disabled circle,#export-svg .disabled text{fill:lightgray;}#export-svg .disabled text{fill:#efefef;}#export-svg .section-0 rect,#export-svg .section-0 path,#export-svg .section-0 circle,#export-svg .section-0 path{fill:hsl(60, 100%, 73.5294117647%);}#export-svg .section-0 text{fill:black;}#export-svg .node-icon-0{font-size:40px;color:black;}#export-svg .section-edge-0{stroke:hsl(60, 100%, 73.5294117647%);}#export-svg .edge-depth-0{stroke-width:14;}#export-svg .section-0 line{stroke:hsl(240, 100%, 83.5294117647%);stroke-width:3;}#export-svg .lineWrapper line{stroke:black;}#export-svg .disabled,#export-svg .disabled circle,#export-svg .disabled text{fill:lightgray;}#export-svg .disabled text{fill:#efefef;}#export-svg .section-1 rect,#export-svg .section-1 path,#export-svg .section-1 circle,#export-svg .section-1 path{fill:hsl(80, 100%, 76.2745098039%);}#export-svg .section-1 text{fill:black;}#export-svg .node-icon-1{font-size:40px;color:black;}#export-svg .section-edge-1{stroke:hsl(80, 100%, 76.2745098039%);}#export-svg .edge-depth-1{stroke-width:11;}#export-svg .section-1 line{stroke:hsl(260, 100%, 86.2745098039%);stroke-width:3;}#export-svg .lineWrapper line{stroke:black;}#export-svg .disabled,#export-svg .disabled circle,#export-svg .disabled text{fill:lightgray;}#export-svg .disabled text{fill:#efefef;}#export-svg .section-2 rect,#export-svg .section-2 path,#export-svg .section-2 circle,#export-svg .section-2 path{fill:hsl(270, 100%, 76.2745098039%);}#export-svg .section-2 text{fill:#ffffff;}#export-svg .node-icon-2{font-size:40px;color:#ffffff;}#export-svg .section-edge-2{stroke:hsl(270, 100%, 76.2745098039%);}#export-svg .edge-depth-2{stroke-width:8;}#export-svg .section-2 line{stroke:hsl(90, 100%, 86.2745098039%);stroke-width:3;}#export-svg .lineWrapper line{stroke:#ffffff;}#export-svg .disabled,#export-svg .disabled circle,#export-svg .disabled text{fill:lightgray;}#export-svg .disabled text{fill:#efefef;}#export-svg .section-3 rect,#export-svg .section-3 path,#export-svg .section-3 circle,#export-svg .section-3 path{fill:hsl(300, 100%, 76.2745098039%);}#export-svg .section-3 text{fill:black;}#export-svg .node-icon-3{font-size:40px;color:black;}#export-svg .section-edge-3{stroke:hsl(300, 100%, 76.2745098039%);}#export-svg .edge-depth-3{stroke-width:5;}#export-svg .section-3 line{stroke:hsl(120, 100%, 86.2745098039%);stroke-width:3;}#export-svg .lineWrapper line{stroke:black;}#export-svg .disabled,#export-svg .disabled circle,#export-svg .disabled text{fill:lightgray;}#export-svg .disabled text{fill:#efefef;}#export-svg .section-4 rect,#export-svg .section-4 path,#export-svg .section-4 circle,#export-svg .section-4 path{fill:hsl(330, 100%, 76.2745098039%);}#export-svg .section-4 text{fill:black;}#export-svg .node-icon-4{font-size:40px;color:black;}#export-svg .section-edge-4{stroke:hsl(330, 100%, 76.2745098039%);}#export-svg .edge-depth-4{stroke-width:2;}#export-svg .section-4 line{stroke:hsl(150, 100%, 86.2745098039%);stroke-width:3;}#export-svg .lineWrapper line{stroke:black;}#export-svg .disabled,#export-svg .disabled circle,#export-svg .disabled text{fill:lightgray;}#export-svg .disabled text{fill:#efefef;}#export-svg .section-5 rect,#export-svg .section-5 path,#export-svg .section-5 circle,#export-svg .section-5 path{fill:hsl(0, 100%, 76.2745098039%);}#export-svg .section-5 text{fill:black;}#export-svg .node-icon-5{font-size:40px;color:black;}#export-svg .section-edge-5{stroke:hsl(0, 100%, 76.2745098039%);}#export-svg .edge-depth-5{stroke-width:-1;}#export-svg .section-5 line{stroke:hsl(180, 100%, 86.2745098039%);stroke-width:3;}#export-svg .lineWrapper line{stroke:black;}#export-svg .disabled,#export-svg .disabled circle,#export-svg .disabled text{fill:lightgray;}#export-svg .disabled text{fill:#efefef;}#export-svg .section-6 rect,#export-svg .section-6 path,#export-svg .section-6 circle,#export-svg .section-6 path{fill:hsl(30, 100%, 76.2745098039%);}#export-svg .section-6 text{fill:black;}#export-svg .node-icon-6{font-size:40px;color:black;}#export-svg .section-edge-6{stroke:hsl(30, 100%, 76.2745098039%);}#export-svg .edge-depth-6{stroke-width:-4;}#export-svg .section-6 line{stroke:hsl(210, 100%, 86.2745098039%);stroke-width:3;}#export-svg .lineWrapper line{stroke:black;}#export-svg .disabled,#export-svg .disabled circle,#export-svg .disabled text{fill:lightgray;}#export-svg .disabled text{fill:#efefef;}#export-svg .section-7 rect,#export-svg .section-7 path,#export-svg .section-7 circle,#export-svg .section-7 path{fill:hsl(90, 100%, 76.2745098039%);}#export-svg .section-7 text{fill:black;}#export-svg .node-icon-7{font-size:40px;color:black;}#export-svg .section-edge-7{stroke:hsl(90, 100%, 76.2745098039%);}#export-svg .edge-depth-7{stroke-width:-7;}#export-svg .section-7 line{stroke:hsl(270, 100%, 86.2745098039%);stroke-width:3;}#export-svg .lineWrapper line{stroke:black;}#export-svg .disabled,#export-svg .disabled circle,#export-svg .disabled text{fill:lightgray;}#export-svg .disabled text{fill:#efefef;}#export-svg .section-8 rect,#export-svg .section-8 path,#export-svg .section-8 circle,#export-svg .section-8 path{fill:hsl(150, 100%, 76.2745098039%);}#export-svg .section-8 text{fill:black;}#export-svg .node-icon-8{font-size:40px;color:black;}#export-svg .section-edge-8{stroke:hsl(150, 100%, 76.2745098039%);}#export-svg .edge-depth-8{stroke-width:-10;}#export-svg .section-8 line{stroke:hsl(330, 100%, 86.2745098039%);stroke-width:3;}#export-svg .lineWrapper line{stroke:black;}#export-svg .disabled,#export-svg .disabled circle,#export-svg .disabled text{fill:lightgray;}#export-svg .disabled text{fill:#efefef;}#export-svg .section-9 rect,#export-svg .section-9 path,#export-svg .section-9 circle,#export-svg .section-9 path{fill:hsl(180, 100%, 76.2745098039%);}#export-svg .section-9 text{fill:black;}#export-svg .node-icon-9{font-size:40px;color:black;}#export-svg .section-edge-9{stroke:hsl(180, 100%, 76.2745098039%);}#export-svg .edge-depth-9{stroke-width:-13;}#export-svg .section-9 line{stroke:hsl(0, 100%, 86.2745098039%);stroke-width:3;}#export-svg .lineWrapper line{stroke:black;}#export-svg .disabled,#export-svg .disabled circle,#export-svg .disabled text{fill:lightgray;}#export-svg .disabled text{fill:#efefef;}#export-svg .section-10 rect,#export-svg .section-10 path,#export-svg .section-10 circle,#export-svg .section-10 path{fill:hsl(210, 100%, 76.2745098039%);}#export-svg .section-10 text{fill:black;}#export-svg .node-icon-10{font-size:40px;color:black;}#export-svg .section-edge-10{stroke:hsl(210, 100%, 76.2745098039%);}#export-svg .edge-depth-10{stroke-width:-16;}#export-svg .section-10 line{stroke:hsl(30, 100%, 86.2745098039%);stroke-width:3;}#export-svg .lineWrapper line{stroke:black;}#export-svg .disabled,#export-svg .disabled circle,#export-svg .disabled text{fill:lightgray;}#export-svg .disabled text{fill:#efefef;}#export-svg .section-root rect,#export-svg .section-root path,#export-svg .section-root circle{fill:hsl(240, 100%, 46.2745098039%);}#export-svg .section-root text{fill:#ffffff;}#export-svg .icon-container{height:100%;display:flex;justify-content:center;align-items:center;}#export-svg .edge{fill:none;}#export-svg .eventWrapper{filter:brightness(120%);}#export-svg .node .neo-node{stroke:#B8B8FF;}#export-svg [data-look="neo"].node rect,#export-svg [data-look="neo"].cluster rect,#export-svg [data-look="neo"].node polygon{stroke:#B8B8FF;filter:drop-shadow( 1px 2px 2px rgba(185,185,185,1));}#export-svg [data-look="neo"].node path{stroke:#B8B8FF;stroke-width:1;}#export-svg [data-look="neo"].node .outer-path{filter:drop-shadow( 1px 2px 2px rgba(185,185,185,1));}#export-svg [data-look="neo"].node .neo-line path{stroke:#B8B8FF;filter:none;}#export-svg [data-look="neo"].node circle{stroke:#B8B8FF;filter:drop-shadow( 1px 2px 2px rgba(185,185,185,1));}#export-svg [data-look="neo"].node circle .state-start{fill:#000000;}#export-svg [data-look="neo"].statediagram-cluster rect{fill:#ECECFF;stroke:#B8B8FF;stroke-width:1;}#export-svg [data-look="neo"].icon-shape .icon{fill:#B8B8FF;filter:drop-shadow( 1px 2px 2px rgba(185,185,185,1));}#export-svg [data-look="neo"].icon-shape .icon-neo path{stroke:#B8B8FF;filter:drop-shadow( 1px 2px 2px rgba(185,185,185,1));}#export-svg :root{--mermaid-font-family:"trebuchet ms",verdana,arial,sans-serif;}</style><g/><g/><defs><marker id="arrowhead" refX="5" refY="2" markerWidth="6" markerHeight="4" orient="auto"><path d="M 0,0 V 4 L6,2 Z"/></marker></defs><g transform="translate(100, 50)"><g class="timeline-node section--1" data-look="neo"><g><path id="node-undefined" class="node-bkg node-undefined" d="M0 59.8 v-54.8 q0,-5,5,-5 h580 q5,0 ,5,5 v59.8 H0 Z"/><line class="node-line--1" x1="0" y1="64.8" x2="590" y2="64.8"/></g><g transform="translate(295, 10)"><text dy="1em" alignment-baseline="middle" dominant-baseline="middle" text-anchor="middle"><tspan x="0" dy="1em">1º   evaluación</tspan></text></g></g></g><g class="taskWrapper" transform="translate(100, 164.8)"><g class="timeline-node section--1" data-look="neo"><g><path id="node-undefined" class="node-bkg node-undefined" d="M0 59.8 v-54.8 q0,-5,5,-5 h180 q5,0 ,5,5 v59.8 H0 Z"/><line class="node-line--1" x1="0" y1="64.8" x2="190" y2="64.8"/></g><g transform="translate(95, 10)"><text dy="1em" alignment-baseline="middle" dominant-baseline="middle" text-anchor="middle"><tspan x="0" dy="1em">UT1.   Introducción   a   la</tspan><tspan x="0" dy="1.1em">Programación   Android</tspan></text></g></g></g><g class="lineWrapper"><line x1="195" y1="229.60000000000002" x2="195" y2="638.8" stroke-width="2" stroke="black" marker-end="url(#arrowhead)" stroke-dasharray="5,5"/></g><g class="eventWrapper" transform="translate(100, 364.8)"><g class="timeline-node section--1" data-look="neo"><g><path id="node-undefined" class="node-bkg node-undefined" d="M0 55.2000015258789 v-50.2000015258789 q0,-5,5,-5 h180 q5,0 ,5,5 v55.2000015258789 H0 Z"/><line class="node-line--1" x1="0" y1="60.2000015258789" x2="190" y2="60.2000015258789"/></g><g transform="translate(95, 10)"><text dy="1em" alignment-baseline="middle" dominant-baseline="middle" text-anchor="middle"><tspan x="0" dy="1em">Puesta   en   marcha   de</tspan><tspan x="0" dy="1.1em">Android   Studio</tspan></text></g></g></g><g class="eventWrapper" transform="translate(100, 435.00000152587893)"><g class="timeline-node section--1" data-look="neo"><g><path id="node-undefined" class="node-bkg node-undefined" d="M0 55.2000015258789 v-50.2000015258789 q0,-5,5,-5 h180 q5,0 ,5,5 v55.2000015258789 H0 Z"/><line class="node-line--1" x1="0" y1="60.2000015258789" x2="190" y2="60.2000015258789"/></g><g transform="translate(95, 10)"><text dy="1em" alignment-baseline="middle" dominant-baseline="middle" text-anchor="middle"><tspan x="0" dy="1em">Primera   aplicación</tspan><tspan x="0" dy="1.1em">Android</tspan></text></g></g></g><g class="eventWrapper" transform="translate(100, 505.20000305175785)"><g class="timeline-node section--1" data-look="neo"><g><path id="node-undefined" class="node-bkg node-undefined" d="M0 55.2000015258789 v-50.2000015258789 q0,-5,5,-5 h180 q5,0 ,5,5 v55.2000015258789 H0 Z"/><line class="node-line--1" x1="0" y1="60.2000015258789" x2="190" y2="60.2000015258789"/></g><g transform="translate(95, 10)"><text dy="1em" alignment-baseline="middle" dominant-baseline="middle" text-anchor="middle"><tspan x="0" dy="1em">Ciclo   de   vida   de   una</tspan><tspan x="0" dy="1.1em">app</tspan></text></g></g></g><g class="taskWrapper" transform="translate(300, 164.8)"><g class="timeline-node section--1" data-look="neo"><g><path id="node-undefined" class="node-bkg node-undefined" d="M0 70.60000305175781 v-65.60000305175781 q0,-5,5,-5 h180 q5,0 ,5,5 v70.60000305175781 H0 Z"/><line class="node-line--1" x1="0" y1="75.60000305175781" x2="190" y2="75.60000305175781"/></g><g transform="translate(95, 10)"><text dy="1em" alignment-baseline="middle" dominant-baseline="middle" text-anchor="middle"><tspan x="0" dy="1em">UT2.   Componentes</tspan><tspan x="0" dy="1.1em">generales   y   controles</tspan><tspan x="0" dy="1.1em">básicos</tspan></text></g></g></g><g class="lineWrapper"><line x1="395" y1="240.40000305175784" x2="395" y2="649.6000030517578" stroke-width="2" stroke="black" marker-end="url(#arrowhead)" stroke-dasharray="5,5"/></g><g class="eventWrapper" transform="translate(300, 364.8)"><g class="timeline-node section--1" data-look="neo"><g><path id="node-undefined" class="node-bkg node-undefined" d="M0 45 v-40 q0,-5,5,-5 h180 q5,0 ,5,5 v45 H0 Z"/><line class="node-line--1" x1="0" y1="50" x2="190" y2="50"/></g><g transform="translate(95, 10)"><text dy="1em" alignment-baseline="middle" dominant-baseline="middle" text-anchor="middle"><tspan x="0" dy="1em">Intents</tspan></text></g></g></g><g class="eventWrapper" transform="translate(300, 424.8)"><g class="timeline-node section--1" data-look="neo"><g><path id="node-undefined" class="node-bkg node-undefined" d="M0 45 v-40 q0,-5,5,-5 h180 q5,0 ,5,5 v45 H0 Z"/><line class="node-line--1" x1="0" y1="50" x2="190" y2="50"/></g><g transform="translate(95, 10)"><text dy="1em" alignment-baseline="middle" dominant-baseline="middle" text-anchor="middle"><tspan x="0" dy="1em">Layouts</tspan></text></g></g></g><g class="eventWrapper" transform="translate(300, 484.8)"><g class="timeline-node section--1" data-look="neo"><g><path id="node-undefined" class="node-bkg node-undefined" d="M0 45 v-40 q0,-5,5,-5 h180 q5,0 ,5,5 v45 H0 Z"/><line class="node-line--1" x1="0" y1="50" x2="190" y2="50"/></g><g transform="translate(95, 10)"><text dy="1em" alignment-baseline="middle" dominant-baseline="middle" text-anchor="middle"><tspan x="0" dy="1em">Componentes   básicos</tspan></text></g></g></g><g class="eventWrapper" transform="translate(300, 544.8)"><g class="timeline-node section--1" data-look="neo"><g><path id="node-undefined" class="node-bkg node-undefined" d="M0 45 v-40 q0,-5,5,-5 h180 q5,0 ,5,5 v45 H0 Z"/><line class="node-line--1" x1="0" y1="50" x2="190" y2="50"/></g><g transform="translate(95, 10)"><text dy="1em" alignment-baseline="middle" dominant-baseline="middle" text-anchor="middle"><tspan x="0" dy="1em">Internacionalización</tspan></text></g></g></g><g class="taskWrapper" transform="translate(500, 164.8)"><g class="timeline-node section--1" data-look="neo"><g><path id="node-undefined" class="node-bkg node-undefined" d="M0 70.60000305175781 v-65.60000305175781 q0,-5,5,-5 h180 q5,0 ,5,5 v70.60000305175781 H0 Z"/><line class="node-line--1" x1="0" y1="75.60000305175781" x2="190" y2="75.60000305175781"/></g><g transform="translate(95, 10)"><text dy="1em" alignment-baseline="middle" dominant-baseline="middle" text-anchor="middle"><tspan x="0" dy="1em">UT3.   Interfaces   de</tspan><tspan x="0" dy="1.1em">usuario   y   navegación</tspan></text></g></g></g><g class="lineWrapper"><line x1="595" y1="240.40000305175784" x2="595" y2="649.6000030517578" stroke-width="2" stroke="black" marker-end="url(#arrowhead)" stroke-dasharray="5,5"/></g><g class="eventWrapper" transform="translate(500, 364.8)"><g class="timeline-node section--1" data-look="neo"><g><path id="node-undefined" class="node-bkg node-undefined" d="M0 45 v-40 q0,-5,5,-5 h180 q5,0 ,5,5 v45 H0 Z"/><line class="node-line--1" x1="0" y1="50" x2="190" y2="50"/></g><g transform="translate(95, 10)"><text dy="1em" alignment-baseline="middle" dominant-baseline="middle" text-anchor="middle"><tspan x="0" dy="1em">Fragments</tspan></text></g></g></g><g class="eventWrapper" transform="translate(500, 424.8)"><g class="timeline-node section--1" data-look="neo"><g><path id="node-undefined" class="node-bkg node-undefined" d="M0 45 v-40 q0,-5,5,-5 h180 q5,0 ,5,5 v45 H0 Z"/><line class="node-line--1" x1="0" y1="50" x2="190" y2="50"/></g><g transform="translate(95, 10)"><text dy="1em" alignment-baseline="middle" dominant-baseline="middle" text-anchor="middle"><tspan x="0" dy="1em">Menús</tspan></text></g></g></g><g class="eventWrapper" transform="translate(500, 484.8)"><g class="timeline-node section--1" data-look="neo"><g><path id="node-undefined" class="node-bkg node-undefined" d="M0 45 v-40 q0,-5,5,-5 h180 q5,0 ,5,5 v45 H0 Z"/><line class="node-line--1" x1="0" y1="50" x2="190" y2="50"/></g><g transform="translate(95, 10)"><text dy="1em" alignment-baseline="middle" dominant-baseline="middle" text-anchor="middle"><tspan x="0" dy="1em">Recycler   View</tspan></text></g></g></g><g class="eventWrapper" transform="translate(500, 544.8)"><g class="timeline-node section--1" data-look="neo"><g><path id="node-undefined" class="node-bkg node-undefined" d="M0 45 v-40 q0,-5,5,-5 h180 q5,0 ,5,5 v45 H0 Z"/><line class="node-line--1" x1="0" y1="50" x2="190" y2="50"/></g><g transform="translate(95, 10)"><text dy="1em" alignment-baseline="middle" dominant-baseline="middle" text-anchor="middle"><tspan x="0" dy="1em">Arquitectura   MVVM</tspan></text></g></g></g><g transform="translate(700, 50)"><g class="timeline-node section-0" data-look="neo"><g><path id="node-undefined" class="node-bkg node-undefined" d="M0 59.8 v-54.8 q0,-5,5,-5 h380 q5,0 ,5,5 v59.8 H0 Z"/><line class="node-line-0" x1="0" y1="64.8" x2="390" y2="64.8"/></g><g transform="translate(195, 10)"><text dy="1em" alignment-baseline="middle" dominant-baseline="middle" text-anchor="middle"><tspan x="0" dy="1em">2º   evaluación</tspan></text></g></g></g><g class="taskWrapper" transform="translate(700, 164.8)"><g class="timeline-node section-0" data-look="neo"><g><path id="node-undefined" class="node-bkg node-undefined" d="M0 59.8 v-54.8 q0,-5,5,-5 h180 q5,0 ,5,5 v59.8 H0 Z"/><line class="node-line-0" x1="0" y1="64.8" x2="190" y2="64.8"/></g><g transform="translate(95, 10)"><text dy="1em" alignment-baseline="middle" dominant-baseline="middle" text-anchor="middle"><tspan x="0" dy="1em">UT4.   Componentes</tspan><tspan x="0" dy="1.1em">Avanzados</tspan></text></g></g></g><g class="lineWrapper"><line x1="795" y1="229.60000000000002" x2="795" y2="638.8" stroke-width="2" stroke="black" marker-end="url(#arrowhead)" stroke-dasharray="5,5"/></g><g class="eventWrapper" transform="translate(700, 364.8)"><g class="timeline-node section-0" data-look="neo"><g><path id="node-undefined" class="node-bkg node-undefined" d="M0 45 v-40 q0,-5,5,-5 h180 q5,0 ,5,5 v45 H0 Z"/><line class="node-line-0" x1="0" y1="50" x2="190" y2="50"/></g><g transform="translate(95, 10)"><text dy="1em" alignment-baseline="middle" dominant-baseline="middle" text-anchor="middle"><tspan x="0" dy="1em">Retrofit</tspan></text></g></g></g><g class="taskWrapper" transform="translate(900, 164.8)"><g class="timeline-node section-0" data-look="neo"><g><path id="node-undefined" class="node-bkg node-undefined" d="M0 59.8 v-54.8 q0,-5,5,-5 h180 q5,0 ,5,5 v59.8 H0 Z"/><line class="node-line-0" x1="0" y1="64.8" x2="190" y2="64.8"/></g><g transform="translate(95, 10)"><text dy="1em" alignment-baseline="middle" dominant-baseline="middle" text-anchor="middle"><tspan x="0" dy="1em">UT5.   Persistencia   de</tspan><tspan x="0" dy="1.1em">Datos</tspan></text></g></g></g><g class="lineWrapper"><line x1="995" y1="229.60000000000002" x2="995" y2="638.8" stroke-width="2" stroke="black" marker-end="url(#arrowhead)" stroke-dasharray="5,5"/></g><g class="eventWrapper" transform="translate(900, 364.8)"><g class="timeline-node section-0" data-look="neo"><g><path id="node-undefined" class="node-bkg node-undefined" d="M0 45 v-40 q0,-5,5,-5 h180 q5,0 ,5,5 v45 H0 Z"/><line class="node-line-0" x1="0" y1="50" x2="190" y2="50"/></g><g transform="translate(95, 10)"><text dy="1em" alignment-baseline="middle" dominant-baseline="middle" text-anchor="middle"><tspan x="0" dy="1em">Room</tspan></text></g></g></g><g class="eventWrapper" transform="translate(900, 424.8)"><g class="timeline-node section-0" data-look="neo"><g><path id="node-undefined" class="node-bkg node-undefined" d="M0 45 v-40 q0,-5,5,-5 h180 q5,0 ,5,5 v45 H0 Z"/><line class="node-line-0" x1="0" y1="50" x2="190" y2="50"/></g><g transform="translate(95, 10)"><text dy="1em" alignment-baseline="middle" dominant-baseline="middle" text-anchor="middle"><tspan x="0" dy="1em">Shared   preferences</tspan></text></g></g></g><g class="eventWrapper" transform="translate(900, 484.8)"><g class="timeline-node section-0" data-look="neo"><g><path id="node-undefined" class="node-bkg node-undefined" d="M0 45 v-40 q0,-5,5,-5 h180 q5,0 ,5,5 v45 H0 Z"/><line class="node-line-0" x1="0" y1="50" x2="190" y2="50"/></g><g transform="translate(95, 10)"><text dy="1em" alignment-baseline="middle" dominant-baseline="middle" text-anchor="middle"><tspan x="0" dy="1em">Firebase</tspan></text></g></g></g><g class="eventWrapper" transform="translate(900, 544.8)"><g class="timeline-node section-0" data-look="neo"><g><path id="node-undefined" class="node-bkg node-undefined" d="M0 45 v-40 q0,-5,5,-5 h180 q5,0 ,5,5 v45 H0 Z"/><line class="node-line-0" x1="0" y1="50" x2="190" y2="50"/></g><g transform="translate(95, 10)"><text dy="1em" alignment-baseline="middle" dominant-baseline="middle" text-anchor="middle"><tspan x="0" dy="1em">Supabase</tspan></text></g></g></g><g transform="translate(1100, 50)"><g class="timeline-node section-1" data-look="neo"><g><path id="node-undefined" class="node-bkg node-undefined" d="M0 59.8 v-54.8 q0,-5,5,-5 h380 q5,0 ,5,5 v59.8 H0 Z"/><line class="node-line-1" x1="0" y1="64.8" x2="390" y2="64.8"/></g><g transform="translate(195, 10)"><text dy="1em" alignment-baseline="middle" dominant-baseline="middle" text-anchor="middle"><tspan x="0" dy="1em">3º   evaluación   (DUAL)</tspan></text></g></g></g><g class="taskWrapper" transform="translate(1100, 164.8)"><g class="timeline-node section-1" data-look="neo"><g><path id="node-undefined" class="node-bkg node-undefined" d="M0 59.8 v-54.8 q0,-5,5,-5 h180 q5,0 ,5,5 v59.8 H0 Z"/><line class="node-line-1" x1="0" y1="64.8" x2="190" y2="64.8"/></g><g transform="translate(95, 10)"><text dy="1em" alignment-baseline="middle" dominant-baseline="middle" text-anchor="middle"><tspan x="0" dy="1em">UT6.   Librerías</tspan><tspan x="0" dy="1.1em">multimedia   integradas</tspan></text></g></g></g><g class="lineWrapper"><line x1="1195" y1="229.60000000000002" x2="1195" y2="638.8" stroke-width="2" stroke="black" marker-end="url(#arrowhead)" stroke-dasharray="5,5"/></g><g class="eventWrapper" transform="translate(1100, 364.8)"><g class="timeline-node section-1" data-look="neo"><g><path id="node-undefined" class="node-bkg node-undefined" d="M0 45 v-40 q0,-5,5,-5 h180 q5,0 ,5,5 v45 H0 Z"/><line class="node-line-1" x1="0" y1="50" x2="190" y2="50"/></g><g transform="translate(95, 10)"><text dy="1em" alignment-baseline="middle" dominant-baseline="middle" text-anchor="middle"><tspan x="0" dy="1em">API   de   Google   Maps</tspan></text></g></g></g><g class="eventWrapper" transform="translate(1100, 424.8)"><g class="timeline-node section-1" data-look="neo"><g><path id="node-undefined" class="node-bkg node-undefined" d="M0 45 v-40 q0,-5,5,-5 h180 q5,0 ,5,5 v45 H0 Z"/><line class="node-line-1" x1="0" y1="50" x2="190" y2="50"/></g><g transform="translate(95, 10)"><text dy="1em" alignment-baseline="middle" dominant-baseline="middle" text-anchor="middle"><tspan x="0" dy="1em">MediaPlayer</tspan></text></g></g></g><g class="eventWrapper" transform="translate(1100, 484.8)"><g class="timeline-node section-1" data-look="neo"><g><path id="node-undefined" class="node-bkg node-undefined" d="M0 45 v-40 q0,-5,5,-5 h180 q5,0 ,5,5 v45 H0 Z"/><line class="node-line-1" x1="0" y1="50" x2="190" y2="50"/></g><g transform="translate(95, 10)"><text dy="1em" alignment-baseline="middle" dominant-baseline="middle" text-anchor="middle"><tspan x="0" dy="1em">Media   Recorder</tspan></text></g></g></g><g class="taskWrapper" transform="translate(1300, 164.8)"><g class="timeline-node section-1" data-look="neo"><g><path id="node-undefined" class="node-bkg node-undefined" d="M0 59.8 v-54.8 q0,-5,5,-5 h180 q5,0 ,5,5 v59.8 H0 Z"/><line class="node-line-1" x1="0" y1="64.8" x2="190" y2="64.8"/></g><g transform="translate(95, 10)"><text dy="1em" alignment-baseline="middle" dominant-baseline="middle" text-anchor="middle"><tspan x="0" dy="1em">UT7.   Motores   y</tspan><tspan x="0" dy="1.1em">desarrollo   de   juegos</tspan></text></g></g></g><g class="lineWrapper"><line x1="1395" y1="229.60000000000002" x2="1395" y2="638.8" stroke-width="2" stroke="black" marker-end="url(#arrowhead)" stroke-dasharray="5,5"/></g><g class="eventWrapper" transform="translate(1300, 364.8)"><g class="timeline-node section-1" data-look="neo"><g><path id="node-undefined" class="node-bkg node-undefined" d="M0 45 v-40 q0,-5,5,-5 h180 q5,0 ,5,5 v45 H0 Z"/><line class="node-line-1" x1="0" y1="50" x2="190" y2="50"/></g><g transform="translate(95, 10)"><text dy="1em" alignment-baseline="middle" dominant-baseline="middle" text-anchor="middle"><tspan x="0" dy="1em">Unity</tspan></text></g></g></g><text x="250" font-size="4ex" font-weight="bold" y="20">Planificación temporal de PMDM</text><g class="lineWrapper"><line x1="50" y1="279.6" x2="1540" y2="279.6" stroke-width="4" stroke="black" marker-end="url(#arrowhead)"/></g></svg>